


<svg xmlns="http://www.w3.org/2000/svg" xmlns:xlink="http://www.w3.org/1999/xlink">
    <symbol id="openEye" width="17" height="17" viewBox="0 0 16 17" fill="none" xmlns="http://www.w3.org/2000/svg">
    <g clip-path="url(#clip0_213_390)">
    <path d="M14.9422 8.29111C13.4444 5.52222 10.8177 3.84666 7.91107 3.84666C5.0044 3.84666 2.37329 5.52222 0.888849 8.29111L0.764404 8.5L0.87996 8.71333C2.37774 11.4822 5.0044 13.1578 7.91107 13.1578C10.8177 13.1578 13.4488 11.5044 14.9422 8.71333L15.0577 8.5L14.9422 8.29111ZM7.91107 12.2467C5.40885 12.2467 3.11107 10.8511 1.77774 8.5C3.11107 6.14889 5.40885 4.75333 7.91107 4.75333C10.4133 4.75333 12.6844 6.15333 14.04 8.5C12.6844 10.8511 10.4088 12.2467 7.91107 12.2467Z" fill="#605D5A"/>
    <path d="M8.0401 11.5622C9.72396 11.5622 11.089 10.1972 11.089 8.51334C11.089 6.82948 9.72396 5.46445 8.0401 5.46445C6.35625 5.46445 4.99121 6.82948 4.99121 8.51334C4.99121 10.1972 6.35625 11.5622 8.0401 11.5622Z" fill="#605D5A"/>
    </g>
    <defs>
    <clipPath id="clip0_213_390">
    <rect width="16" height="16" fill="white" transform="translate(0 0.5)"/>
    </clipPath>
    </defs>
    </symbol>

    <symbol id="closedEye" width="16" height="17" viewBox="0 0 16 17" fill="none" xmlns="http://www.w3.org/2000/svg">
    <g opacity="0.8" clip-path="url(#clip0_4_1257)">
    <path d="M8.16442 5.46445C7.80472 5.46487 7.448 5.52959 7.11108 5.65556L11.0222 9.56667C11.1498 9.22558 11.2146 8.86419 11.2133 8.5C11.2098 7.6937 10.887 6.92162 10.3156 6.35273C9.74421 5.78383 8.97073 5.46444 8.16442 5.46445Z" fill="#605D5A"/>
    <path d="M15.24 8.29111C13.7422 5.52222 11.1156 3.84666 8.20889 3.84666C7.41749 3.84852 6.63141 3.97604 5.88 4.22444L6.59556 4.94444C7.12261 4.80823 7.66454 4.73807 8.20889 4.73555C10.7111 4.73555 12.9867 6.13111 14.3422 8.48222C13.845 9.35449 13.1858 10.1238 12.4 10.7489L13.0311 11.38C13.9405 10.6464 14.6957 9.74008 15.2533 8.71333L15.3689 8.5L15.24 8.29111Z" fill="#605D5A"/>
    <path d="M2.16447 3.06889L4.14669 5.05111C2.89376 5.85783 1.86976 6.97368 1.17336 8.29111L1.0578 8.5L1.17336 8.71334C2.67113 11.4822 5.2978 13.1578 8.20447 13.1578C9.33898 13.1576 10.4588 12.9008 11.48 12.4067L13.7022 14.6289L14.48 13.9622L2.92447 2.40667L2.16447 3.06889ZM5.85336 6.75778C5.43755 7.34418 5.24266 8.0588 5.30318 8.77511C5.36371 9.49142 5.67576 10.1632 6.18407 10.6715C6.69238 11.1798 7.36416 11.4919 8.08047 11.5524C8.79678 11.6129 9.5114 11.418 10.0978 11.0022L10.8089 11.7133C9.9857 12.0652 9.09973 12.2466 8.20447 12.2467C5.70224 12.2467 3.42669 10.8511 2.07113 8.5C2.72167 7.3481 3.65857 6.38365 4.79113 5.7L5.85336 6.75778Z" fill="#605D5A"/>
    </g>
    <defs>
    <clipPath id="clip0_4_1257">
    <rect width="16" height="16" fill="white" transform="translate(0 0.5)"/>
    </clipPath>
    </defs>
    </symbol>
    
    <symbol id="plus"  width="14" height="14" viewBox="0 0 14 14" fill="none" xmlns="http://www.w3.org/2000/svg">
    <path d="M6 8H0V6H6V0H8V6H14V8H8V14H6V8Z" fill="white"/>
    </symbol>

    <symbol id="search" width="16" height="16" viewBox="0 0 16 16" fill="none" xmlns="http://www.w3.org/2000/svg">
    <path d="M14.5001 13.7928L10.7241 10.0168C11.6315 8.92747 12.0839 7.53023 11.9874 6.11577C11.8908 4.7013 11.2527 3.37851 10.2057 2.42257C9.15867 1.46663 7.78343 0.951151 6.36604 0.983357C4.94864 1.01556 3.59823 1.59298 2.59573 2.59548C1.59322 3.59799 1.01581 4.9484 0.983601 6.36579C0.951395 7.78318 1.46688 9.15843 2.42282 10.2054C3.37875 11.2524 4.70154 11.8906 6.11601 11.9871C7.53048 12.0837 8.92771 11.6312 10.0171 10.7238L13.7931 14.4998L14.5001 13.7928ZM2.00006 6.49981C2.00006 5.6098 2.26398 4.73977 2.75844 3.99975C3.25291 3.25973 3.95571 2.68295 4.77798 2.34236C5.60025 2.00176 6.50505 1.91265 7.37796 2.08628C8.25088 2.25991 9.0527 2.6885 9.68204 3.31783C10.3114 3.94717 10.74 4.74899 10.9136 5.62191C11.0872 6.49482 10.9981 7.39962 10.6575 8.22189C10.3169 9.04416 9.74014 9.74696 9.00012 10.2414C8.2601 10.7359 7.39007 10.9998 6.50006 10.9998C5.30699 10.9985 4.16317 10.524 3.31954 9.68033C2.47591 8.83671 2.00138 7.69288 2.00006 6.49981Z" fill="#8C8884"/>
    </symbol>

    <symbol id="dropdown" width="10" height="6" viewBox="0 0 10 6" fill="none" xmlns="http://www.w3.org/2000/svg">
    <path d="M5 5.9998L0 0.999804L0.7 0.299805L5 4.5998L9.3 0.299805L10 0.999804L5 5.9998Z" fill="#605D5A"/>
    </symbol>

    <symbol id="cross" width="13" height="12" viewBox="0 0 13 12" fill="none" xmlns="http://www.w3.org/2000/svg">
    <path d="M12.229 1.05L11.179 0L6.229 4.95L1.279 0L0.229004 1.05L5.179 6L0.229004 10.95L1.279 12L6.229 7.05L11.179 12L12.229 10.95L7.279 6L12.229 1.05Z" fill="#474643"/>
    </symbol>

</svg>

